<svg xmlns="http://www.w3.org/2000/svg" viewBox="0 0 32 32" width="32" height="32">
  <defs>
    <linearGradient id="tealGradient" x1="0%" y1="0%" x2="100%" y2="100%">
      <stop offset="0%" style="stop-color:#09394d;stop-opacity:1" />
      <stop offset="100%" style="stop-color:#0a455a;stop-opacity:1" />
    </linearGradient>
    <linearGradient id="leafGradient" x1="0%" y1="0%" x2="100%" y2="100%">
      <stop offset="0%" style="stop-color:#ffffff;stop-opacity:1" />
      <stop offset="100%" style="stop-color:#f8fafc;stop-opacity:1" />
    </linearGradient>
  </defs>

  <!-- Teal background circle -->
  <circle cx="16" cy="16" r="15" fill="url(#tealGradient)" stroke="#ffffff" stroke-width="1"/>

  <!-- Dental motif recreated as SVG paths -->
  <g transform="translate(16, 16) scale(0.7)">
    <!-- Main leaf/dental shape -->
    <path d="M0 -10 C-3.5 -10 -6 -7.5 -7 -4 C-7 0 -6 3.5 -3.5 6 C-1 8.5 1 8.5 3.5 6 C6 3.5 7 0 7 -4 C6 -7.5 3.5 -10 0 -10 Z"
          fill="url(#leafGradient)"
          stroke="#ffffff"
          stroke-width="0.5"
          opacity="0.95"/>

    <!-- Central vein/stem -->
    <path d="M0 -10 L0 7"
          stroke="#09394d"
          stroke-width="0.8"
          opacity="0.4"/>

    <!-- Side veins -->
    <path d="M0 -3 C-2.5 -1.5 -3.5 0 -3.5 1.5"
          stroke="#09394d"
          stroke-width="0.5"
          opacity="0.3"/>
    <path d="M0 0 C2.5 1.5 3.5 2.5 3.5 3.5"
          stroke="#09394d"
          stroke-width="0.5"
          opacity="0.3"/>

    <!-- Small accent dot for quality/dental care -->
    <circle cx="1" cy="-5" r="1" fill="#D4AF37" opacity="0.9"/>

    <!-- Subtle highlight on the leaf -->
    <ellipse cx="-1.5" cy="-3" rx="1.5" ry="3" fill="#ffffff" opacity="0.15"/>
  </g>
</svg>
