<?xml version="1.0" encoding="UTF-8"?>
<svg width="1920" height="1080" viewBox="0 0 1920 1080" xmlns="http://www.w3.org/2000/svg">
  <!-- Professional dental office background -->
  <defs>
    <linearGradient id="backgroundGradient" x1="0%" y1="0%" x2="100%" y2="100%">
      <stop offset="0%" style="stop-color:#f8fafc;stop-opacity:1" />
      <stop offset="100%" style="stop-color:#e2e8f0;stop-opacity:1" />
    </linearGradient>
    <linearGradient id="chairGradient" x1="0%" y1="0%" x2="100%" y2="100%">
      <stop offset="0%" style="stop-color:#09394d;stop-opacity:1" />
      <stop offset="100%" style="stop-color:#0b4d66;stop-opacity:1" />
    </linearGradient>
  </defs>

  <!-- Background -->
  <rect width="1920" height="1080" fill="url(#backgroundGradient)"/>

  <!-- Floor -->
  <rect x="0" y="800" width="1920" height="280" fill="#e2e8f0"/>

  <!-- Modern dental chair silhouette -->
  <g transform="translate(600, 400)">
    <!-- Chair base -->
    <ellipse cx="200" cy="300" rx="80" ry="20" fill="#09394d"/>
    <!-- Chair column -->
    <rect x="180" y="250" width="40" height="50" fill="#09394d"/>
    <!-- Chair seat -->
    <ellipse cx="200" cy="200" rx="120" ry="40" fill="url(#chairGradient)"/>
    <!-- Chair back -->
    <rect x="150" y="120" width="100" height="80" rx="10" fill="url(#chairGradient)"/>
    <!-- Headrest -->
    <ellipse cx="200" cy="110" rx="40" ry="15" fill="url(#chairGradient)"/>
  </g>

  <!-- Light fixture -->
  <g transform="translate(400, 100)">
    <line x1="0" y1="0" x2="0" y2="200" stroke="#09394d" stroke-width="8"/>
    <circle cx="0" cy="200" r="60" fill="#D4AF37" opacity="0.3"/>
    <circle cx="0" cy="200" r="40" fill="#D4AF37"/>
  </g>

  <!-- Equipment cabinet -->
  <rect x="1200" y="600" width="300" height="200" rx="10" fill="#09394d"/>
  <rect x="1220" y="620" width="260" height="60" rx="5" fill="#4a7c59"/>
  <rect x="1220" y="700" width="260" height="80" rx="5" fill="#7fb3d3"/>

  <!-- Window with natural light effect -->
  <rect x="50" y="200" width="200" height="300" rx="10" fill="#ffffff" opacity="0.8"/>
  <rect x="70" y="220" width="160" height="260" rx="5" fill="#f0f9ff"/>

  <!-- Subtle texture overlay -->
  <rect width="1920" height="1080" fill="url(#backgroundGradient)" opacity="0.1"/>
</svg>
