<svg xmlns="http://www.w3.org/2000/svg" viewBox="0 0 32 32" width="32" height="32">
  <defs>
    <linearGradient id="tealGradient" x1="0%" y1="0%" x2="100%" y2="100%">
      <stop offset="0%" style="stop-color:#09394d;stop-opacity:1" />
      <stop offset="100%" style="stop-color:#0a455a;stop-opacity:1" />
    </linearGradient>
  </defs>

  <!-- Background circle with teal gradient -->
  <circle cx="16" cy="16" r="15" fill="url(#tealGradient)" stroke="#ffffff" stroke-width="1"/>

  <!-- Dental tooth motif - simplified for favicon -->
  <g transform="translate(16, 16) scale(0.8)">
    <!-- Main tooth shape -->
    <path d="M-4 -6 C-6 -6 -7 -4 -7 -2 L-7 3 C-7 6 -4 8 0 8 C4 8 7 6 7 3 L7 -2 C7 -4 6 -6 4 -6 Z"
          fill="#ffffff"
          stroke="none"/>

    <!-- Tooth crown detail -->
    <path d="M-4 -6 C-2 -7 2 -7 4 -6 C5 -5 6 -3 6 -2 L6 0 C6 1 5 2 3 2 L-3 2 C-5 2 -6 1 -6 0 L-6 -2 C-6 -3 -5 -5 -4 -6 Z"
          fill="#f8fafc"
          stroke="none"/>

    <!-- Small sparkle/health indicator -->
    <circle cx="2" cy="-2" r="1" fill="#D4AF37" opacity="0.9"/>
  </g>
</svg>
